<mxfile host="app.diagrams.net" modified="2023-09-05T06:31:31.575Z" agent="Mozilla/5.0 (Windows NT 10.0; Win64; x64) AppleWebKit/537.36 (KHTML, like Gecko) Chrome/116.0.0.0 Safari/537.36" etag="mEbfwnlwTVsJbJEyBNON" version="21.7.1" type="google" pages="2">
  <diagram id="INGwAgPv7LviMPxEoCJy" name="Flipkart System 1.1">
    <mxGraphModel grid="1" page="1" gridSize="10" guides="1" tooltips="1" connect="1" arrows="1" fold="1" pageScale="1" pageWidth="827" pageHeight="1169" math="0" shadow="0">
      <root>
        <mxCell id="0" />
        <mxCell id="1" parent="0" />
        <mxCell id="_2FxSugfIFVMx0r0vMqZ-1" style="edgeStyle=orthogonalEdgeStyle;rounded=0;orthogonalLoop=1;jettySize=auto;html=1;exitX=0;exitY=1;exitDx=0;exitDy=0;entryX=0;entryY=0.5;entryDx=0;entryDy=0;" edge="1" parent="1" source="_2FxSugfIFVMx0r0vMqZ-2" target="_2FxSugfIFVMx0r0vMqZ-47">
          <mxGeometry relative="1" as="geometry" />
        </mxCell>
        <mxCell id="KHdnFkiGKCLkn3jwSrfA-19" style="edgeStyle=orthogonalEdgeStyle;rounded=0;orthogonalLoop=1;jettySize=auto;html=1;exitX=0;exitY=0.75;exitDx=0;exitDy=0;entryX=0;entryY=0.5;entryDx=0;entryDy=0;" edge="1" parent="1" source="_2FxSugfIFVMx0r0vMqZ-2" target="KHdnFkiGKCLkn3jwSrfA-4">
          <mxGeometry relative="1" as="geometry" />
        </mxCell>
        <mxCell id="_2FxSugfIFVMx0r0vMqZ-2" value="Admin" style="rounded=1;whiteSpace=wrap;html=1;" vertex="1" parent="1">
          <mxGeometry y="80" width="200" height="120" as="geometry" />
        </mxCell>
        <mxCell id="_2FxSugfIFVMx0r0vMqZ-3" style="edgeStyle=orthogonalEdgeStyle;rounded=0;orthogonalLoop=1;jettySize=auto;html=1;entryX=-0.007;entryY=0.64;entryDx=0;entryDy=0;entryPerimeter=0;" edge="1" parent="1" source="_2FxSugfIFVMx0r0vMqZ-4" target="_2FxSugfIFVMx0r0vMqZ-19">
          <mxGeometry relative="1" as="geometry" />
        </mxCell>
        <mxCell id="M1q0kJ5KHMbm2HnC8trK-1" style="edgeStyle=orthogonalEdgeStyle;rounded=0;orthogonalLoop=1;jettySize=auto;html=1;exitX=0;exitY=1;exitDx=0;exitDy=0;entryX=0.999;entryY=0.597;entryDx=0;entryDy=0;entryPerimeter=0;" edge="1" parent="1" source="_2FxSugfIFVMx0r0vMqZ-4" target="_2FxSugfIFVMx0r0vMqZ-2">
          <mxGeometry relative="1" as="geometry" />
        </mxCell>
        <mxCell id="_2FxSugfIFVMx0r0vMqZ-4" value="Login" style="ellipse;whiteSpace=wrap;html=1;aspect=fixed;" vertex="1" parent="1">
          <mxGeometry x="340" y="50" width="120" height="120" as="geometry" />
        </mxCell>
        <mxCell id="_2FxSugfIFVMx0r0vMqZ-5" style="edgeStyle=orthogonalEdgeStyle;rounded=0;orthogonalLoop=1;jettySize=auto;html=1;entryX=0;entryY=0.5;entryDx=0;entryDy=0;" edge="1" parent="1" source="_2FxSugfIFVMx0r0vMqZ-6" target="_2FxSugfIFVMx0r0vMqZ-21">
          <mxGeometry relative="1" as="geometry" />
        </mxCell>
        <mxCell id="_2FxSugfIFVMx0r0vMqZ-6" value="Website" style="ellipse;whiteSpace=wrap;html=1;aspect=fixed;" vertex="1" parent="1">
          <mxGeometry x="340" y="190" width="120" height="120" as="geometry" />
        </mxCell>
        <mxCell id="_2FxSugfIFVMx0r0vMqZ-7" style="edgeStyle=orthogonalEdgeStyle;rounded=0;orthogonalLoop=1;jettySize=auto;html=1;entryX=0.75;entryY=1;entryDx=0;entryDy=0;" edge="1" parent="1" source="_2FxSugfIFVMx0r0vMqZ-9" target="_2FxSugfIFVMx0r0vMqZ-2">
          <mxGeometry relative="1" as="geometry" />
        </mxCell>
        <mxCell id="_2FxSugfIFVMx0r0vMqZ-8" style="edgeStyle=orthogonalEdgeStyle;rounded=0;orthogonalLoop=1;jettySize=auto;html=1;entryX=0;entryY=0.5;entryDx=0;entryDy=0;" edge="1" parent="1" source="_2FxSugfIFVMx0r0vMqZ-9" target="_2FxSugfIFVMx0r0vMqZ-23">
          <mxGeometry relative="1" as="geometry" />
        </mxCell>
        <mxCell id="_2FxSugfIFVMx0r0vMqZ-9" value="Customer Details" style="ellipse;whiteSpace=wrap;html=1;aspect=fixed;" vertex="1" parent="1">
          <mxGeometry x="340" y="340" width="120" height="120" as="geometry" />
        </mxCell>
        <mxCell id="_2FxSugfIFVMx0r0vMqZ-10" style="edgeStyle=orthogonalEdgeStyle;rounded=0;orthogonalLoop=1;jettySize=auto;html=1;" edge="1" parent="1" source="_2FxSugfIFVMx0r0vMqZ-11">
          <mxGeometry relative="1" as="geometry">
            <mxPoint x="120" y="200" as="targetPoint" />
          </mxGeometry>
        </mxCell>
        <mxCell id="_2FxSugfIFVMx0r0vMqZ-11" value="Category&amp;nbsp;" style="ellipse;whiteSpace=wrap;html=1;aspect=fixed;" vertex="1" parent="1">
          <mxGeometry x="340" y="480" width="120" height="120" as="geometry" />
        </mxCell>
        <mxCell id="_2FxSugfIFVMx0r0vMqZ-12" style="edgeStyle=orthogonalEdgeStyle;rounded=0;orthogonalLoop=1;jettySize=auto;html=1;entryX=0.5;entryY=1;entryDx=0;entryDy=0;" edge="1" parent="1" source="_2FxSugfIFVMx0r0vMqZ-13" target="_2FxSugfIFVMx0r0vMqZ-2">
          <mxGeometry relative="1" as="geometry" />
        </mxCell>
        <mxCell id="_2FxSugfIFVMx0r0vMqZ-13" value="Product&amp;nbsp;" style="ellipse;whiteSpace=wrap;html=1;aspect=fixed;" vertex="1" parent="1">
          <mxGeometry x="340" y="630" width="120" height="120" as="geometry" />
        </mxCell>
        <mxCell id="_2FxSugfIFVMx0r0vMqZ-14" style="edgeStyle=orthogonalEdgeStyle;rounded=0;orthogonalLoop=1;jettySize=auto;html=1;entryX=0;entryY=0.5;entryDx=0;entryDy=0;" edge="1" parent="1" source="_2FxSugfIFVMx0r0vMqZ-16" target="_2FxSugfIFVMx0r0vMqZ-28">
          <mxGeometry relative="1" as="geometry" />
        </mxCell>
        <mxCell id="_2FxSugfIFVMx0r0vMqZ-15" style="edgeStyle=orthogonalEdgeStyle;rounded=0;orthogonalLoop=1;jettySize=auto;html=1;exitX=0;exitY=0;exitDx=0;exitDy=0;entryX=0.4;entryY=1;entryDx=0;entryDy=0;entryPerimeter=0;" edge="1" parent="1" source="_2FxSugfIFVMx0r0vMqZ-16" target="_2FxSugfIFVMx0r0vMqZ-2">
          <mxGeometry relative="1" as="geometry">
            <Array as="points">
              <mxPoint x="80" y="798" />
            </Array>
          </mxGeometry>
        </mxCell>
        <mxCell id="_2FxSugfIFVMx0r0vMqZ-16" value="Sales&amp;nbsp;" style="ellipse;whiteSpace=wrap;html=1;aspect=fixed;" vertex="1" parent="1">
          <mxGeometry x="340" y="780" width="120" height="120" as="geometry" />
        </mxCell>
        <mxCell id="_2FxSugfIFVMx0r0vMqZ-17" value="" style="endArrow=classic;html=1;rounded=0;entryX=0;entryY=0.5;entryDx=0;entryDy=0;" edge="1" parent="1" target="_2FxSugfIFVMx0r0vMqZ-4">
          <mxGeometry width="50" height="50" relative="1" as="geometry">
            <mxPoint x="200" y="110" as="sourcePoint" />
            <mxPoint x="250" y="60" as="targetPoint" />
          </mxGeometry>
        </mxCell>
        <mxCell id="_2FxSugfIFVMx0r0vMqZ-18" style="edgeStyle=orthogonalEdgeStyle;rounded=0;orthogonalLoop=1;jettySize=auto;html=1;" edge="1" parent="1" source="_2FxSugfIFVMx0r0vMqZ-19">
          <mxGeometry relative="1" as="geometry">
            <mxPoint x="460" y="101" as="targetPoint" />
          </mxGeometry>
        </mxCell>
        <mxCell id="_2FxSugfIFVMx0r0vMqZ-19" value="Login Table" style="shape=process;whiteSpace=wrap;html=1;backgroundOutline=1;" vertex="1" parent="1">
          <mxGeometry x="670" y="70" width="120" height="60" as="geometry" />
        </mxCell>
        <mxCell id="_2FxSugfIFVMx0r0vMqZ-20" style="edgeStyle=orthogonalEdgeStyle;rounded=0;orthogonalLoop=1;jettySize=auto;html=1;exitX=0;exitY=0.25;exitDx=0;exitDy=0;entryX=1.003;entryY=0.38;entryDx=0;entryDy=0;entryPerimeter=0;" edge="1" parent="1" source="_2FxSugfIFVMx0r0vMqZ-21" target="_2FxSugfIFVMx0r0vMqZ-6">
          <mxGeometry relative="1" as="geometry" />
        </mxCell>
        <mxCell id="_2FxSugfIFVMx0r0vMqZ-21" value="Customer details table" style="shape=process;whiteSpace=wrap;html=1;backgroundOutline=1;" vertex="1" parent="1">
          <mxGeometry x="670" y="220" width="120" height="60" as="geometry" />
        </mxCell>
        <mxCell id="_2FxSugfIFVMx0r0vMqZ-22" style="edgeStyle=orthogonalEdgeStyle;rounded=0;orthogonalLoop=1;jettySize=auto;html=1;exitX=0;exitY=0.25;exitDx=0;exitDy=0;entryX=1;entryY=0.375;entryDx=0;entryDy=0;entryPerimeter=0;" edge="1" parent="1" source="_2FxSugfIFVMx0r0vMqZ-23" target="_2FxSugfIFVMx0r0vMqZ-9">
          <mxGeometry relative="1" as="geometry" />
        </mxCell>
        <mxCell id="_2FxSugfIFVMx0r0vMqZ-23" value="Customers details table" style="shape=process;whiteSpace=wrap;html=1;backgroundOutline=1;" vertex="1" parent="1">
          <mxGeometry x="670" y="370" width="120" height="60" as="geometry" />
        </mxCell>
        <mxCell id="_2FxSugfIFVMx0r0vMqZ-24" style="edgeStyle=orthogonalEdgeStyle;rounded=0;orthogonalLoop=1;jettySize=auto;html=1;" edge="1" parent="1" source="_2FxSugfIFVMx0r0vMqZ-25" target="_2FxSugfIFVMx0r0vMqZ-11">
          <mxGeometry relative="1" as="geometry" />
        </mxCell>
        <mxCell id="_2FxSugfIFVMx0r0vMqZ-25" value="Category table" style="shape=process;whiteSpace=wrap;html=1;backgroundOutline=1;" vertex="1" parent="1">
          <mxGeometry x="670" y="510" width="120" height="60" as="geometry" />
        </mxCell>
        <mxCell id="_2FxSugfIFVMx0r0vMqZ-26" style="edgeStyle=orthogonalEdgeStyle;rounded=0;orthogonalLoop=1;jettySize=auto;html=1;entryX=1;entryY=0.5;entryDx=0;entryDy=0;" edge="1" parent="1" source="_2FxSugfIFVMx0r0vMqZ-27" target="_2FxSugfIFVMx0r0vMqZ-13">
          <mxGeometry relative="1" as="geometry" />
        </mxCell>
        <mxCell id="_2FxSugfIFVMx0r0vMqZ-27" value="Product Table" style="shape=process;whiteSpace=wrap;html=1;backgroundOutline=1;" vertex="1" parent="1">
          <mxGeometry x="670" y="660" width="120" height="60" as="geometry" />
        </mxCell>
        <mxCell id="_2FxSugfIFVMx0r0vMqZ-28" value="Sales table" style="shape=process;whiteSpace=wrap;html=1;backgroundOutline=1;" vertex="1" parent="1">
          <mxGeometry x="670" y="810" width="120" height="60" as="geometry" />
        </mxCell>
        <mxCell id="_2FxSugfIFVMx0r0vMqZ-29" value="Login" style="text;html=1;align=center;verticalAlign=middle;resizable=0;points=[];autosize=1;strokeColor=none;fillColor=none;" vertex="1" parent="1">
          <mxGeometry x="530" y="110" width="50" height="30" as="geometry" />
        </mxCell>
        <mxCell id="_2FxSugfIFVMx0r0vMqZ-30" value="Response" style="text;html=1;align=center;verticalAlign=middle;resizable=0;points=[];autosize=1;strokeColor=none;fillColor=none;" vertex="1" parent="1">
          <mxGeometry x="520" y="68" width="80" height="30" as="geometry" />
        </mxCell>
        <mxCell id="_2FxSugfIFVMx0r0vMqZ-31" value="Login" style="text;html=1;align=center;verticalAlign=middle;resizable=0;points=[];autosize=1;strokeColor=none;fillColor=none;" vertex="1" parent="1">
          <mxGeometry x="245" y="78" width="50" height="30" as="geometry" />
        </mxCell>
        <mxCell id="_2FxSugfIFVMx0r0vMqZ-32" value="" style="endArrow=none;html=1;rounded=0;" edge="1" parent="1">
          <mxGeometry width="50" height="50" relative="1" as="geometry">
            <mxPoint x="340" y="240" as="sourcePoint" />
            <mxPoint x="180" y="240" as="targetPoint" />
          </mxGeometry>
        </mxCell>
        <mxCell id="_2FxSugfIFVMx0r0vMqZ-33" value="" style="endArrow=classic;html=1;rounded=0;" edge="1" parent="1">
          <mxGeometry width="50" height="50" relative="1" as="geometry">
            <mxPoint x="180" y="240" as="sourcePoint" />
            <mxPoint x="180" y="200" as="targetPoint" />
          </mxGeometry>
        </mxCell>
        <mxCell id="_2FxSugfIFVMx0r0vMqZ-34" value="" style="endArrow=none;html=1;rounded=0;" edge="1" parent="1">
          <mxGeometry width="50" height="50" relative="1" as="geometry">
            <mxPoint x="170" y="250" as="sourcePoint" />
            <mxPoint x="170" y="200" as="targetPoint" />
          </mxGeometry>
        </mxCell>
        <mxCell id="_2FxSugfIFVMx0r0vMqZ-35" value="" style="endArrow=classic;html=1;rounded=0;entryX=0;entryY=0.5;entryDx=0;entryDy=0;" edge="1" parent="1" target="_2FxSugfIFVMx0r0vMqZ-6">
          <mxGeometry width="50" height="50" relative="1" as="geometry">
            <mxPoint x="170" y="249.5" as="sourcePoint" />
            <mxPoint x="320" y="249.5" as="targetPoint" />
          </mxGeometry>
        </mxCell>
        <mxCell id="_2FxSugfIFVMx0r0vMqZ-36" value="" style="endArrow=none;html=1;rounded=0;" edge="1" parent="1">
          <mxGeometry width="50" height="50" relative="1" as="geometry">
            <mxPoint x="140" y="410" as="sourcePoint" />
            <mxPoint x="140" y="200" as="targetPoint" />
          </mxGeometry>
        </mxCell>
        <mxCell id="_2FxSugfIFVMx0r0vMqZ-37" value="" style="endArrow=classic;html=1;rounded=0;entryX=-0.023;entryY=0.577;entryDx=0;entryDy=0;entryPerimeter=0;" edge="1" parent="1" target="_2FxSugfIFVMx0r0vMqZ-9">
          <mxGeometry width="50" height="50" relative="1" as="geometry">
            <mxPoint x="140" y="410" as="sourcePoint" />
            <mxPoint x="190" y="360" as="targetPoint" />
            <Array as="points">
              <mxPoint x="160" y="410" />
            </Array>
          </mxGeometry>
        </mxCell>
        <mxCell id="_2FxSugfIFVMx0r0vMqZ-38" value="Response" style="text;html=1;align=center;verticalAlign=middle;resizable=0;points=[];autosize=1;strokeColor=none;fillColor=none;" vertex="1" parent="1">
          <mxGeometry x="505" y="358" width="80" height="30" as="geometry" />
        </mxCell>
        <mxCell id="_2FxSugfIFVMx0r0vMqZ-39" value="Response" style="text;html=1;align=center;verticalAlign=middle;resizable=0;points=[];autosize=1;strokeColor=none;fillColor=none;" vertex="1" parent="1">
          <mxGeometry x="520" y="208" width="80" height="30" as="geometry" />
        </mxCell>
        <mxCell id="_2FxSugfIFVMx0r0vMqZ-40" value="Request" style="text;html=1;align=center;verticalAlign=middle;resizable=0;points=[];autosize=1;strokeColor=none;fillColor=none;" vertex="1" parent="1">
          <mxGeometry x="525" y="258" width="70" height="30" as="geometry" />
        </mxCell>
        <mxCell id="_2FxSugfIFVMx0r0vMqZ-41" value="Request" style="text;html=1;align=center;verticalAlign=middle;resizable=0;points=[];autosize=1;strokeColor=none;fillColor=none;" vertex="1" parent="1">
          <mxGeometry x="515" y="398" width="70" height="30" as="geometry" />
        </mxCell>
        <mxCell id="_2FxSugfIFVMx0r0vMqZ-42" value="" style="endArrow=classic;html=1;rounded=0;" edge="1" parent="1">
          <mxGeometry width="50" height="50" relative="1" as="geometry">
            <mxPoint x="670" y="825" as="sourcePoint" />
            <mxPoint x="460" y="825" as="targetPoint" />
          </mxGeometry>
        </mxCell>
        <mxCell id="_2FxSugfIFVMx0r0vMqZ-43" value="" style="endArrow=none;html=1;rounded=0;" edge="1" parent="1">
          <mxGeometry width="50" height="50" relative="1" as="geometry">
            <mxPoint x="60" y="843.2000122070312" as="sourcePoint" />
            <mxPoint x="60" y="200" as="targetPoint" />
          </mxGeometry>
        </mxCell>
        <mxCell id="_2FxSugfIFVMx0r0vMqZ-44" value="" style="endArrow=classic;html=1;rounded=0;entryX=0;entryY=0.5;entryDx=0;entryDy=0;" edge="1" parent="1" target="_2FxSugfIFVMx0r0vMqZ-16">
          <mxGeometry width="50" height="50" relative="1" as="geometry">
            <mxPoint x="60" y="840" as="sourcePoint" />
            <mxPoint x="110" y="790" as="targetPoint" />
          </mxGeometry>
        </mxCell>
        <mxCell id="_2FxSugfIFVMx0r0vMqZ-45" style="edgeStyle=orthogonalEdgeStyle;rounded=0;orthogonalLoop=1;jettySize=auto;html=1;entryX=0;entryY=0.5;entryDx=0;entryDy=0;" edge="1" parent="1" source="_2FxSugfIFVMx0r0vMqZ-47" target="_2FxSugfIFVMx0r0vMqZ-49">
          <mxGeometry relative="1" as="geometry" />
        </mxCell>
        <mxCell id="_2FxSugfIFVMx0r0vMqZ-46" style="edgeStyle=orthogonalEdgeStyle;rounded=0;orthogonalLoop=1;jettySize=auto;html=1;exitX=0;exitY=0;exitDx=0;exitDy=0;entryX=0.095;entryY=0.963;entryDx=0;entryDy=0;entryPerimeter=0;" edge="1" parent="1" source="_2FxSugfIFVMx0r0vMqZ-47" target="_2FxSugfIFVMx0r0vMqZ-2">
          <mxGeometry relative="1" as="geometry" />
        </mxCell>
        <mxCell id="_2FxSugfIFVMx0r0vMqZ-47" value="Cart" style="ellipse;whiteSpace=wrap;html=1;aspect=fixed;" vertex="1" parent="1">
          <mxGeometry x="340" y="930" width="120" height="120" as="geometry" />
        </mxCell>
        <mxCell id="_2FxSugfIFVMx0r0vMqZ-48" style="edgeStyle=orthogonalEdgeStyle;rounded=0;orthogonalLoop=1;jettySize=auto;html=1;exitX=0;exitY=0.25;exitDx=0;exitDy=0;entryX=0.985;entryY=0.373;entryDx=0;entryDy=0;entryPerimeter=0;" edge="1" parent="1" source="_2FxSugfIFVMx0r0vMqZ-49" target="_2FxSugfIFVMx0r0vMqZ-47">
          <mxGeometry relative="1" as="geometry" />
        </mxCell>
        <mxCell id="_2FxSugfIFVMx0r0vMqZ-49" value="Cart table" style="shape=process;whiteSpace=wrap;html=1;backgroundOutline=1;" vertex="1" parent="1">
          <mxGeometry x="670" y="960" width="120" height="60" as="geometry" />
        </mxCell>
        <mxCell id="_2FxSugfIFVMx0r0vMqZ-50" value="" style="endArrow=classic;html=1;rounded=0;entryX=-0.013;entryY=0.147;entryDx=0;entryDy=0;entryPerimeter=0;" edge="1" parent="1" target="_2FxSugfIFVMx0r0vMqZ-25">
          <mxGeometry width="50" height="50" relative="1" as="geometry">
            <mxPoint x="456.5" y="521" as="sourcePoint" />
            <mxPoint x="653.5" y="520" as="targetPoint" />
            <Array as="points">
              <mxPoint x="476.5" y="521" />
            </Array>
          </mxGeometry>
        </mxCell>
        <mxCell id="_2FxSugfIFVMx0r0vMqZ-51" value="" style="endArrow=classic;html=1;rounded=0;entryX=-0.023;entryY=0.577;entryDx=0;entryDy=0;entryPerimeter=0;exitX=1.003;exitY=0.427;exitDx=0;exitDy=0;exitPerimeter=0;" edge="1" parent="1" source="_2FxSugfIFVMx0r0vMqZ-13">
          <mxGeometry width="50" height="50" relative="1" as="geometry">
            <mxPoint x="473" y="681" as="sourcePoint" />
            <mxPoint x="670" y="680" as="targetPoint" />
            <Array as="points">
              <mxPoint x="493" y="681" />
            </Array>
          </mxGeometry>
        </mxCell>
        <mxCell id="_2FxSugfIFVMx0r0vMqZ-52" value="" style="endArrow=classic;html=1;rounded=0;" edge="1" parent="1">
          <mxGeometry width="50" height="50" relative="1" as="geometry">
            <mxPoint x="130" y="521" as="sourcePoint" />
            <mxPoint x="340" y="521" as="targetPoint" />
          </mxGeometry>
        </mxCell>
        <mxCell id="_2FxSugfIFVMx0r0vMqZ-53" value="" style="endArrow=none;html=1;rounded=0;" edge="1" parent="1">
          <mxGeometry width="50" height="50" relative="1" as="geometry">
            <mxPoint x="130" y="522" as="sourcePoint" />
            <mxPoint x="130" y="200" as="targetPoint" />
            <Array as="points">
              <mxPoint x="130" y="352" />
            </Array>
          </mxGeometry>
        </mxCell>
        <mxCell id="_2FxSugfIFVMx0r0vMqZ-54" value="" style="endArrow=none;html=1;rounded=0;" edge="1" parent="1">
          <mxGeometry width="50" height="50" relative="1" as="geometry">
            <mxPoint x="110" y="670" as="sourcePoint" />
            <mxPoint x="110" y="200" as="targetPoint" />
            <Array as="points">
              <mxPoint x="110" y="352" />
            </Array>
          </mxGeometry>
        </mxCell>
        <mxCell id="_2FxSugfIFVMx0r0vMqZ-55" value="" style="endArrow=classic;html=1;rounded=0;" edge="1" parent="1">
          <mxGeometry width="50" height="50" relative="1" as="geometry">
            <mxPoint x="110" y="670" as="sourcePoint" />
            <mxPoint x="340" y="670" as="targetPoint" />
          </mxGeometry>
        </mxCell>
        <mxCell id="_2FxSugfIFVMx0r0vMqZ-56" value="request" style="text;html=1;align=center;verticalAlign=middle;resizable=0;points=[];autosize=1;strokeColor=none;fillColor=none;" vertex="1" parent="1">
          <mxGeometry x="530" y="498" width="60" height="30" as="geometry" />
        </mxCell>
        <mxCell id="_2FxSugfIFVMx0r0vMqZ-57" value="Response" style="text;html=1;align=center;verticalAlign=middle;resizable=0;points=[];autosize=1;strokeColor=none;fillColor=none;" vertex="1" parent="1">
          <mxGeometry x="520" y="538" width="80" height="30" as="geometry" />
        </mxCell>
        <mxCell id="_2FxSugfIFVMx0r0vMqZ-58" value="response" style="text;html=1;align=center;verticalAlign=middle;resizable=0;points=[];autosize=1;strokeColor=none;fillColor=none;" vertex="1" parent="1">
          <mxGeometry x="235" y="218" width="70" height="30" as="geometry" />
        </mxCell>
        <mxCell id="_2FxSugfIFVMx0r0vMqZ-59" value="request" style="text;html=1;align=center;verticalAlign=middle;resizable=0;points=[];autosize=1;strokeColor=none;fillColor=none;" vertex="1" parent="1">
          <mxGeometry x="230" y="248" width="60" height="30" as="geometry" />
        </mxCell>
        <mxCell id="_2FxSugfIFVMx0r0vMqZ-60" value="response" style="text;html=1;align=center;verticalAlign=middle;resizable=0;points=[];autosize=1;strokeColor=none;fillColor=none;" vertex="1" parent="1">
          <mxGeometry x="205" y="378" width="70" height="30" as="geometry" />
        </mxCell>
        <mxCell id="_2FxSugfIFVMx0r0vMqZ-61" value="request" style="text;html=1;align=center;verticalAlign=middle;resizable=0;points=[];autosize=1;strokeColor=none;fillColor=none;" vertex="1" parent="1">
          <mxGeometry x="210" y="408" width="60" height="30" as="geometry" />
        </mxCell>
        <mxCell id="_2FxSugfIFVMx0r0vMqZ-62" value="request" style="text;html=1;align=center;verticalAlign=middle;resizable=0;points=[];autosize=1;strokeColor=none;fillColor=none;" vertex="1" parent="1">
          <mxGeometry x="190" y="498" width="60" height="30" as="geometry" />
        </mxCell>
        <mxCell id="_2FxSugfIFVMx0r0vMqZ-63" value="response" style="text;html=1;align=center;verticalAlign=middle;resizable=0;points=[];autosize=1;strokeColor=none;fillColor=none;" vertex="1" parent="1">
          <mxGeometry x="185" y="548" width="70" height="30" as="geometry" />
        </mxCell>
        <mxCell id="_2FxSugfIFVMx0r0vMqZ-64" value="request" style="text;html=1;align=center;verticalAlign=middle;resizable=0;points=[];autosize=1;strokeColor=none;fillColor=none;" vertex="1" parent="1">
          <mxGeometry x="190" y="638" width="60" height="30" as="geometry" />
        </mxCell>
        <mxCell id="_2FxSugfIFVMx0r0vMqZ-65" value="response" style="text;html=1;align=center;verticalAlign=middle;resizable=0;points=[];autosize=1;strokeColor=none;fillColor=none;" vertex="1" parent="1">
          <mxGeometry x="175" y="688" width="70" height="30" as="geometry" />
        </mxCell>
        <mxCell id="_2FxSugfIFVMx0r0vMqZ-66" value="request" style="text;html=1;align=center;verticalAlign=middle;resizable=0;points=[];autosize=1;strokeColor=none;fillColor=none;" vertex="1" parent="1">
          <mxGeometry x="510" y="648" width="60" height="30" as="geometry" />
        </mxCell>
        <mxCell id="_2FxSugfIFVMx0r0vMqZ-67" value="response" style="text;html=1;align=center;verticalAlign=middle;resizable=0;points=[];autosize=1;strokeColor=none;fillColor=none;" vertex="1" parent="1">
          <mxGeometry x="505" y="688" width="70" height="30" as="geometry" />
        </mxCell>
        <mxCell id="_2FxSugfIFVMx0r0vMqZ-68" value="response" style="text;html=1;align=center;verticalAlign=middle;resizable=0;points=[];autosize=1;strokeColor=none;fillColor=none;" vertex="1" parent="1">
          <mxGeometry x="175" y="778" width="70" height="30" as="geometry" />
        </mxCell>
        <mxCell id="_2FxSugfIFVMx0r0vMqZ-69" value="request" style="text;html=1;align=center;verticalAlign=middle;resizable=0;points=[];autosize=1;strokeColor=none;fillColor=none;" vertex="1" parent="1">
          <mxGeometry x="170" y="840" width="60" height="30" as="geometry" />
        </mxCell>
        <mxCell id="_2FxSugfIFVMx0r0vMqZ-70" value="response" style="text;html=1;align=center;verticalAlign=middle;resizable=0;points=[];autosize=1;strokeColor=none;fillColor=none;" vertex="1" parent="1">
          <mxGeometry x="515" y="798" width="70" height="30" as="geometry" />
        </mxCell>
        <mxCell id="_2FxSugfIFVMx0r0vMqZ-71" value="request" style="text;html=1;align=center;verticalAlign=middle;resizable=0;points=[];autosize=1;strokeColor=none;fillColor=none;" vertex="1" parent="1">
          <mxGeometry x="520" y="838" width="60" height="30" as="geometry" />
        </mxCell>
        <mxCell id="_2FxSugfIFVMx0r0vMqZ-72" value="&lt;span style=&quot;color: rgb(0, 0, 0); font-family: Helvetica; font-size: 12px; font-style: normal; font-variant-ligatures: normal; font-variant-caps: normal; font-weight: 400; letter-spacing: normal; orphans: 2; text-align: center; text-indent: 0px; text-transform: none; widows: 2; word-spacing: 0px; -webkit-text-stroke-width: 0px; background-color: rgb(251, 251, 251); text-decoration-thickness: initial; text-decoration-style: initial; text-decoration-color: initial; float: none; display: inline !important;&quot;&gt;request&lt;/span&gt;" style="text;whiteSpace=wrap;html=1;" vertex="1" parent="1">
          <mxGeometry x="160" y="1000" width="70" height="40" as="geometry" />
        </mxCell>
        <mxCell id="_2FxSugfIFVMx0r0vMqZ-73" value="&lt;span style=&quot;color: rgb(0, 0, 0); font-family: Helvetica; font-size: 12px; font-style: normal; font-variant-ligatures: normal; font-variant-caps: normal; font-weight: 400; letter-spacing: normal; orphans: 2; text-align: center; text-indent: 0px; text-transform: none; widows: 2; word-spacing: 0px; -webkit-text-stroke-width: 0px; background-color: rgb(251, 251, 251); text-decoration-thickness: initial; text-decoration-style: initial; text-decoration-color: initial; float: none; display: inline !important;&quot;&gt;request&lt;/span&gt;" style="text;whiteSpace=wrap;html=1;" vertex="1" parent="1">
          <mxGeometry x="530" y="1000" width="70" height="40" as="geometry" />
        </mxCell>
        <mxCell id="_2FxSugfIFVMx0r0vMqZ-74" value="response" style="text;html=1;align=center;verticalAlign=middle;resizable=0;points=[];autosize=1;strokeColor=none;fillColor=none;" vertex="1" parent="1">
          <mxGeometry x="535" y="948" width="70" height="30" as="geometry" />
        </mxCell>
        <mxCell id="_2FxSugfIFVMx0r0vMqZ-75" value="&lt;span style=&quot;color: rgb(0, 0, 0); font-family: Helvetica; font-size: 12px; font-style: normal; font-variant-ligatures: normal; font-variant-caps: normal; font-weight: 400; letter-spacing: normal; orphans: 2; text-align: center; text-indent: 0px; text-transform: none; widows: 2; word-spacing: 0px; -webkit-text-stroke-width: 0px; background-color: rgb(251, 251, 251); text-decoration-thickness: initial; text-decoration-style: initial; text-decoration-color: initial; float: none; display: inline !important;&quot;&gt;response&lt;/span&gt;" style="text;whiteSpace=wrap;html=1;" vertex="1" parent="1">
          <mxGeometry x="165" y="920" width="80" height="40" as="geometry" />
        </mxCell>
        <mxCell id="KHdnFkiGKCLkn3jwSrfA-2" value="Response" style="text;html=1;align=center;verticalAlign=middle;resizable=0;points=[];autosize=1;strokeColor=none;fillColor=none;" vertex="1" parent="1">
          <mxGeometry x="220" y="128" width="80" height="30" as="geometry" />
        </mxCell>
        <mxCell id="KHdnFkiGKCLkn3jwSrfA-3" style="edgeStyle=orthogonalEdgeStyle;rounded=0;orthogonalLoop=1;jettySize=auto;html=1;entryX=0;entryY=0.5;entryDx=0;entryDy=0;" edge="1" parent="1" source="KHdnFkiGKCLkn3jwSrfA-4" target="KHdnFkiGKCLkn3jwSrfA-6">
          <mxGeometry relative="1" as="geometry" />
        </mxCell>
        <mxCell id="KHdnFkiGKCLkn3jwSrfA-18" style="edgeStyle=orthogonalEdgeStyle;rounded=0;orthogonalLoop=1;jettySize=auto;html=1;exitX=0;exitY=0;exitDx=0;exitDy=0;entryX=0.003;entryY=0.87;entryDx=0;entryDy=0;entryPerimeter=0;" edge="1" parent="1" source="KHdnFkiGKCLkn3jwSrfA-4" target="_2FxSugfIFVMx0r0vMqZ-2">
          <mxGeometry relative="1" as="geometry">
            <Array as="points">
              <mxPoint x="358" y="1170" />
              <mxPoint x="-30" y="1170" />
              <mxPoint x="-30" y="184" />
            </Array>
          </mxGeometry>
        </mxCell>
        <mxCell id="KHdnFkiGKCLkn3jwSrfA-4" value="Payment" style="ellipse;whiteSpace=wrap;html=1;aspect=fixed;" vertex="1" parent="1">
          <mxGeometry x="340" y="1080" width="120" height="120" as="geometry" />
        </mxCell>
        <mxCell id="KHdnFkiGKCLkn3jwSrfA-5" style="edgeStyle=orthogonalEdgeStyle;rounded=0;orthogonalLoop=1;jettySize=auto;html=1;exitX=0;exitY=0.25;exitDx=0;exitDy=0;entryX=0.985;entryY=0.373;entryDx=0;entryDy=0;entryPerimeter=0;" edge="1" parent="1" source="KHdnFkiGKCLkn3jwSrfA-6" target="KHdnFkiGKCLkn3jwSrfA-4">
          <mxGeometry relative="1" as="geometry" />
        </mxCell>
        <mxCell id="KHdnFkiGKCLkn3jwSrfA-6" value="Payment table" style="shape=process;whiteSpace=wrap;html=1;backgroundOutline=1;" vertex="1" parent="1">
          <mxGeometry x="670" y="1110" width="120" height="60" as="geometry" />
        </mxCell>
        <mxCell id="KHdnFkiGKCLkn3jwSrfA-7" value="response" style="text;html=1;align=center;verticalAlign=middle;resizable=0;points=[];autosize=1;strokeColor=none;fillColor=none;" vertex="1" parent="1">
          <mxGeometry x="535" y="1098" width="70" height="30" as="geometry" />
        </mxCell>
        <mxCell id="KHdnFkiGKCLkn3jwSrfA-8" style="edgeStyle=orthogonalEdgeStyle;rounded=0;orthogonalLoop=1;jettySize=auto;html=1;entryX=0;entryY=0.5;entryDx=0;entryDy=0;" edge="1" parent="1" source="KHdnFkiGKCLkn3jwSrfA-9" target="KHdnFkiGKCLkn3jwSrfA-11">
          <mxGeometry relative="1" as="geometry" />
        </mxCell>
        <mxCell id="KHdnFkiGKCLkn3jwSrfA-9" value="Shipping" style="ellipse;whiteSpace=wrap;html=1;aspect=fixed;" vertex="1" parent="1">
          <mxGeometry x="340" y="1240" width="120" height="120" as="geometry" />
        </mxCell>
        <mxCell id="KHdnFkiGKCLkn3jwSrfA-10" style="edgeStyle=orthogonalEdgeStyle;rounded=0;orthogonalLoop=1;jettySize=auto;html=1;exitX=0;exitY=0.25;exitDx=0;exitDy=0;entryX=0.985;entryY=0.373;entryDx=0;entryDy=0;entryPerimeter=0;" edge="1" parent="1" source="KHdnFkiGKCLkn3jwSrfA-11" target="KHdnFkiGKCLkn3jwSrfA-9">
          <mxGeometry relative="1" as="geometry" />
        </mxCell>
        <mxCell id="KHdnFkiGKCLkn3jwSrfA-11" value="Shipping table" style="shape=process;whiteSpace=wrap;html=1;backgroundOutline=1;" vertex="1" parent="1">
          <mxGeometry x="670" y="1270" width="120" height="60" as="geometry" />
        </mxCell>
        <mxCell id="KHdnFkiGKCLkn3jwSrfA-12" value="response" style="text;html=1;align=center;verticalAlign=middle;resizable=0;points=[];autosize=1;strokeColor=none;fillColor=none;" vertex="1" parent="1">
          <mxGeometry x="535" y="1258" width="70" height="30" as="geometry" />
        </mxCell>
        <mxCell id="KHdnFkiGKCLkn3jwSrfA-13" style="edgeStyle=orthogonalEdgeStyle;rounded=0;orthogonalLoop=1;jettySize=auto;html=1;entryX=0;entryY=0.5;entryDx=0;entryDy=0;" edge="1" parent="1" source="KHdnFkiGKCLkn3jwSrfA-14" target="KHdnFkiGKCLkn3jwSrfA-16">
          <mxGeometry relative="1" as="geometry" />
        </mxCell>
        <mxCell id="KHdnFkiGKCLkn3jwSrfA-14" value="Report" style="ellipse;whiteSpace=wrap;html=1;aspect=fixed;" vertex="1" parent="1">
          <mxGeometry x="340" y="1400" width="120" height="120" as="geometry" />
        </mxCell>
        <mxCell id="KHdnFkiGKCLkn3jwSrfA-15" style="edgeStyle=orthogonalEdgeStyle;rounded=0;orthogonalLoop=1;jettySize=auto;html=1;exitX=0;exitY=0.25;exitDx=0;exitDy=0;entryX=0.985;entryY=0.373;entryDx=0;entryDy=0;entryPerimeter=0;" edge="1" parent="1" source="KHdnFkiGKCLkn3jwSrfA-16" target="KHdnFkiGKCLkn3jwSrfA-14">
          <mxGeometry relative="1" as="geometry" />
        </mxCell>
        <mxCell id="KHdnFkiGKCLkn3jwSrfA-16" value="Report table" style="shape=process;whiteSpace=wrap;html=1;backgroundOutline=1;" vertex="1" parent="1">
          <mxGeometry x="675" y="1430" width="120" height="60" as="geometry" />
        </mxCell>
        <mxCell id="KHdnFkiGKCLkn3jwSrfA-17" value="response" style="text;html=1;align=center;verticalAlign=middle;resizable=0;points=[];autosize=1;strokeColor=none;fillColor=none;" vertex="1" parent="1">
          <mxGeometry x="540" y="1418" width="70" height="30" as="geometry" />
        </mxCell>
        <mxCell id="KHdnFkiGKCLkn3jwSrfA-23" value="" style="endArrow=classic;html=1;rounded=0;entryX=0;entryY=0.5;entryDx=0;entryDy=0;" edge="1" parent="1" target="_2FxSugfIFVMx0r0vMqZ-2">
          <mxGeometry width="50" height="50" relative="1" as="geometry">
            <mxPoint x="-60" y="140" as="sourcePoint" />
            <mxPoint x="-10" y="110" as="targetPoint" />
          </mxGeometry>
        </mxCell>
        <mxCell id="KHdnFkiGKCLkn3jwSrfA-24" value="" style="endArrow=none;html=1;rounded=0;" edge="1" parent="1">
          <mxGeometry width="50" height="50" relative="1" as="geometry">
            <mxPoint x="-60" y="1300" as="sourcePoint" />
            <mxPoint x="-60" y="140" as="targetPoint" />
          </mxGeometry>
        </mxCell>
        <mxCell id="KHdnFkiGKCLkn3jwSrfA-27" value="" style="endArrow=none;html=1;rounded=0;entryX=0;entryY=0.5;entryDx=0;entryDy=0;" edge="1" parent="1" target="KHdnFkiGKCLkn3jwSrfA-9">
          <mxGeometry width="50" height="50" relative="1" as="geometry">
            <mxPoint x="-60" y="1298" as="sourcePoint" />
            <mxPoint x="-10" y="1248" as="targetPoint" />
          </mxGeometry>
        </mxCell>
        <mxCell id="KHdnFkiGKCLkn3jwSrfA-28" value="" style="endArrow=classic;html=1;rounded=0;" edge="1" parent="1">
          <mxGeometry width="50" height="50" relative="1" as="geometry">
            <mxPoint x="-80" y="1320" as="sourcePoint" />
            <mxPoint x="345" y="1320" as="targetPoint" />
          </mxGeometry>
        </mxCell>
        <mxCell id="KHdnFkiGKCLkn3jwSrfA-29" value="" style="endArrow=none;html=1;rounded=0;" edge="1" parent="1">
          <mxGeometry width="50" height="50" relative="1" as="geometry">
            <mxPoint x="-80" y="1320" as="sourcePoint" />
            <mxPoint x="-80" y="120" as="targetPoint" />
          </mxGeometry>
        </mxCell>
        <mxCell id="KHdnFkiGKCLkn3jwSrfA-30" value="" style="endArrow=none;html=1;rounded=0;entryX=-0.021;entryY=0.337;entryDx=0;entryDy=0;entryPerimeter=0;" edge="1" parent="1" target="_2FxSugfIFVMx0r0vMqZ-2">
          <mxGeometry width="50" height="50" relative="1" as="geometry">
            <mxPoint x="-80" y="120" as="sourcePoint" />
            <mxPoint x="-30" y="70" as="targetPoint" />
          </mxGeometry>
        </mxCell>
        <mxCell id="KHdnFkiGKCLkn3jwSrfA-31" value="" style="endArrow=classic;html=1;rounded=0;entryX=0.083;entryY=0.743;entryDx=0;entryDy=0;entryPerimeter=0;" edge="1" parent="1" target="KHdnFkiGKCLkn3jwSrfA-14">
          <mxGeometry width="50" height="50" relative="1" as="geometry">
            <mxPoint x="-90" y="1489.17" as="sourcePoint" />
            <mxPoint x="335" y="1489.17" as="targetPoint" />
          </mxGeometry>
        </mxCell>
        <mxCell id="KHdnFkiGKCLkn3jwSrfA-32" value="" style="endArrow=none;html=1;rounded=0;" edge="1" parent="1">
          <mxGeometry width="50" height="50" relative="1" as="geometry">
            <mxPoint x="-90" y="1489.17" as="sourcePoint" />
            <mxPoint x="-90" y="110" as="targetPoint" />
          </mxGeometry>
        </mxCell>
        <mxCell id="KHdnFkiGKCLkn3jwSrfA-34" value="" style="endArrow=none;html=1;rounded=0;entryX=0;entryY=0.25;entryDx=0;entryDy=0;" edge="1" parent="1" target="_2FxSugfIFVMx0r0vMqZ-2">
          <mxGeometry width="50" height="50" relative="1" as="geometry">
            <mxPoint x="-90" y="110" as="sourcePoint" />
            <mxPoint x="-40" y="60" as="targetPoint" />
          </mxGeometry>
        </mxCell>
        <mxCell id="KHdnFkiGKCLkn3jwSrfA-35" value="" style="endArrow=classic;html=1;rounded=0;entryX=-0.007;entryY=0.158;entryDx=0;entryDy=0;entryPerimeter=0;" edge="1" parent="1" target="_2FxSugfIFVMx0r0vMqZ-2">
          <mxGeometry width="50" height="50" relative="1" as="geometry">
            <mxPoint x="-100" y="98" as="sourcePoint" />
            <mxPoint y="100" as="targetPoint" />
          </mxGeometry>
        </mxCell>
        <mxCell id="KHdnFkiGKCLkn3jwSrfA-36" value="" style="endArrow=none;html=1;rounded=0;" edge="1" parent="1">
          <mxGeometry width="50" height="50" relative="1" as="geometry">
            <mxPoint x="-100" y="1460" as="sourcePoint" />
            <mxPoint x="-100" y="98" as="targetPoint" />
          </mxGeometry>
        </mxCell>
        <mxCell id="KHdnFkiGKCLkn3jwSrfA-37" value="" style="endArrow=none;html=1;rounded=0;entryX=0;entryY=0.5;entryDx=0;entryDy=0;" edge="1" parent="1">
          <mxGeometry width="50" height="50" relative="1" as="geometry">
            <mxPoint x="-100" y="1461" as="sourcePoint" />
            <mxPoint x="340" y="1461" as="targetPoint" />
          </mxGeometry>
        </mxCell>
        <mxCell id="KHdnFkiGKCLkn3jwSrfA-38" value="Request" style="text;html=1;align=center;verticalAlign=middle;resizable=0;points=[];autosize=1;strokeColor=none;fillColor=none;" vertex="1" parent="1">
          <mxGeometry x="185" y="1108" width="70" height="30" as="geometry" />
        </mxCell>
        <mxCell id="KHdnFkiGKCLkn3jwSrfA-39" value="request" style="text;html=1;align=center;verticalAlign=middle;resizable=0;points=[];autosize=1;strokeColor=none;fillColor=none;" vertex="1" parent="1">
          <mxGeometry x="510" y="1138" width="60" height="30" as="geometry" />
        </mxCell>
        <mxCell id="KHdnFkiGKCLkn3jwSrfA-40" value="response" style="text;html=1;align=center;verticalAlign=middle;resizable=0;points=[];autosize=1;strokeColor=none;fillColor=none;" vertex="1" parent="1">
          <mxGeometry x="205" y="1168" width="70" height="30" as="geometry" />
        </mxCell>
        <mxCell id="KHdnFkiGKCLkn3jwSrfA-41" value="Request" style="text;html=1;align=center;verticalAlign=middle;resizable=0;points=[];autosize=1;strokeColor=none;fillColor=none;" vertex="1" parent="1">
          <mxGeometry x="530" y="1300" width="70" height="30" as="geometry" />
        </mxCell>
        <mxCell id="KHdnFkiGKCLkn3jwSrfA-42" value="request" style="text;html=1;align=center;verticalAlign=middle;resizable=0;points=[];autosize=1;strokeColor=none;fillColor=none;" vertex="1" parent="1">
          <mxGeometry x="180" y="1318" width="60" height="30" as="geometry" />
        </mxCell>
        <mxCell id="KHdnFkiGKCLkn3jwSrfA-43" value="response" style="text;html=1;align=center;verticalAlign=middle;resizable=0;points=[];autosize=1;strokeColor=none;fillColor=none;" vertex="1" parent="1">
          <mxGeometry x="145" y="1278" width="70" height="30" as="geometry" />
        </mxCell>
        <mxCell id="KHdnFkiGKCLkn3jwSrfA-44" value="response" style="text;html=1;align=center;verticalAlign=middle;resizable=0;points=[];autosize=1;strokeColor=none;fillColor=none;" vertex="1" parent="1">
          <mxGeometry x="135" y="1438" width="70" height="30" as="geometry" />
        </mxCell>
        <mxCell id="KHdnFkiGKCLkn3jwSrfA-45" value="request" style="text;html=1;align=center;verticalAlign=middle;resizable=0;points=[];autosize=1;strokeColor=none;fillColor=none;" vertex="1" parent="1">
          <mxGeometry x="160" y="1488" width="60" height="30" as="geometry" />
        </mxCell>
      </root>
    </mxGraphModel>
  </diagram>
  <diagram id="COzgtoTtVBNBnUGhQEe-" name="Page-2">
    <mxGraphModel grid="1" page="1" gridSize="10" guides="1" tooltips="1" connect="1" arrows="1" fold="1" pageScale="1" pageWidth="827" pageHeight="1169" math="0" shadow="0">
      <root>
        <mxCell id="0" />
        <mxCell id="1" parent="0" />
      </root>
    </mxGraphModel>
  </diagram>
</mxfile>
